<?xml version="1.0" encoding="utf-8"?>
<!-- Generator: Adobe Illustrator 23.0.4, SVG Export Plug-In . SVG Version: 6.00 Build 0)  -->
<svg version="1.1" id="Layer_1" focusable="false" xmlns="http://www.w3.org/2000/svg" xmlns:xlink="http://www.w3.org/1999/xlink"
	 x="0px" y="0px" viewBox="0 0 384 512" style="enable-background:new 0 0 384 512;" xml:space="preserve">
<g>
	<g>
		<g>
			<g>
				<path d="M355.4,232h-11.6c-6.4,0-11.6,5.4-11.6,12v12H307l-33.9-35c-8-8.3-18.8-12.9-30.1-12.9c-19.6,0-36.6,13.7-41.4,33.3
					L182,322c-2,8.2,0.3,16.8,6.1,22.8l62.8,64.9v62c0,13.2,10.4,24,23.2,24c12.8,0,23.2-10.7,23.2-24v-62
					c0-12.8-4.8-24.8-13.6-33.9l-34-35.1c0.1-0.4,0.4-0.7,0.4-1.1l14.4-59.6l16.3,16.8c4.4,4.5,10.3,7,16.4,7h34.8v179.7
					c0,6.6,5.2,12,11.6,12h11.6c6.4,0,11.6-5.4,11.6-12V243.9C367,237.3,361.8,232,355.4,232z"/>
				<circle cx="282.1" cy="170" r="38"/>
				<path d="M172.5,326.5l38.6-124.2c2.1-6.6-1.8-13.5-8.7-15.5c-34.3-10-70.4,8.5-80.7,41.4l-23.7,76.6c-2.1,6.6,1.8,13.5,8.7,15.5
					l49.7,14.5C163.2,336.8,170.4,333.1,172.5,326.5z"/>
				<path d="M161.8,466L161.8,466c-3,13.7,5.6,27.2,19.3,30.2c2.1,0.5,4.2,0.6,6.2,0.6c11.3-0.3,21.5-8.3,24-19.8l17.8-80.5
					l-42.9-40.6L161.8,466z"/>
			</g>
		</g>
	</g>
</g>
<g>
	<g>
		<path d="M102.6,138l-15.2-1.8c-3.5,29.4,17.6,56,47,59.5l-4,34.2c-0.2,2.1,1.3,4,3.4,4.2l7.6,0.9c2.1,0.2,4-1.3,4.2-3.4l4-34.2
			C153,168,131.9,141.4,102.6,138z M195.6,133.5c-20-2.4-38.7,6.6-49.7,21.9c5.7,7.9,9.6,17.2,11,27.2c27.1,0.4,50.7-19.8,53.9-47.3
			L195.6,133.5z"/>
	</g>
</g>
</svg>
