<?xml version="1.0" encoding="UTF-8" standalone="no"?>
<!-- Created with Inkscape (http://www.inkscape.org/) -->

<svg
   xmlns:dc="http://purl.org/dc/elements/1.1/"
   xmlns:cc="http://creativecommons.org/ns#"
   xmlns:rdf="http://www.w3.org/1999/02/22-rdf-syntax-ns#"
   xmlns:svg="http://www.w3.org/2000/svg"
   xmlns="http://www.w3.org/2000/svg"
   xmlns:sodipodi="http://sodipodi.sourceforge.net/DTD/sodipodi-0.dtd"
   xmlns:inkscape="http://www.inkscape.org/namespaces/inkscape"
   version="1.1"
   id="svg3833"
   width="273.33334"
   height="356"
   viewBox="0 0 273.33334 356"
   sodipodi:docname="colored-logo.svg"
   inkscape:version="0.92.4 5da689c313, 2019-01-14">
  <metadata
     id="metadata3839">
    <rdf:RDF>
      <cc:Work
         rdf:about="">
        <dc:format>image/svg+xml</dc:format>
        <dc:type
           rdf:resource="http://purl.org/dc/dcmitype/StillImage" />
        <dc:title></dc:title>
      </cc:Work>
    </rdf:RDF>
  </metadata>
  <defs
     id="defs3837" />
  <sodipodi:namedview
     pagecolor="#ffffff"
     bordercolor="#666666"
     borderopacity="1"
     objecttolerance="10"
     gridtolerance="10"
     guidetolerance="10"
     inkscape:pageopacity="0"
     inkscape:pageshadow="2"
     inkscape:window-width="1920"
     inkscape:window-height="1022"
     id="namedview3835"
     showgrid="false"
     inkscape:zoom="2.0246816"
     inkscape:cx="29.680098"
     inkscape:cy="175.96945"
     inkscape:window-x="0"
     inkscape:window-y="27"
     inkscape:window-maximized="1"
     inkscape:current-layer="svg3833" />
  <path
     style="fill:#23373b;stroke-width:1.33333337;fill-opacity:1"
     d="m 91.752708,354.68449 c -6.344537,-1.16641 -13.459773,-6.63592 -16.231737,-12.4774 -3.500981,-7.37777 -2.859232,-15.79601 3.166756,-41.54042 5.535076,-23.64712 17.312275,-77.87159 17.312275,-79.70903 0,-1.26003 0.379355,-2.29097 0.84301,-2.29097 0.463656,0 5.713658,4.67501 11.666668,10.38892 5.95301,5.7139 15.17042,14.5639 20.48312,19.66666 L 138.65227,258 132.6702,285.33333 c -3.29013,15.03334 -6.56059,29.73334 -7.26767,32.66667 -0.70709,2.93333 -2.27736,9.53261 -3.4895,14.66508 -2.60572,11.03317 -5.70914,15.84767 -12.35865,19.17264 -6.24652,3.12345 -11.62141,3.98299 -17.801672,2.84677 z M 174,352.45116 c -2.2,-1.15981 -5.42733,-3.38579 -7.17184,-4.94663 C 160.5425,341.88069 160,338.37359 160,303.36189 v -32.72376 l -20.33333,-20.92148 c -11.18333,-11.50682 -25.34832,-26.0504 -31.47774,-32.31906 -11.069437,-11.32091 -16.103522,-19.17606 -16.159645,-25.21536 -0.01611,-1.73311 1.202647,-8.33311 2.708337,-14.66667 8.579558,-36.08915 13.535768,-56.28783 15.286618,-62.29942 1.08667,-3.73112 1.97576,-7.54398 1.97576,-8.47303 0,-2.89874 6.6866,-15.226645 10.42895,-19.227581 8.37946,-8.958456 20.52548,-13.559897 33.20075,-12.57788 12.79702,0.99145 17.89434,4.376623 39.60173,26.299791 l 19.89808,20.09589 h 11.61326 11.61325 l 0.55363,-8.6946 C 239.70941,100.07886 242.12181,98 255.89706,98 c 8.44416,0 11.03695,0.4953 13.29629,2.53998 l 2.80666,2.53999 v 121.6843 c 0,66.92636 -0.37271,122.65556 -0.82824,123.84266 -1.3922,3.62802 -7.95916,6.05974 -16.36454,6.05974 -6.52545,0 -8.67828,-0.59036 -11.73288,-3.21744 l -3.74101,-3.21744 -0.36071,-90.1159 L 238.61193,168 h -17.77367 c -9.77551,0 -19.81319,-0.67572 -22.30596,-1.5016 -2.5281,-0.83759 -9.07804,-5.95924 -14.81202,-11.58209 -7.09298,-6.95551 -10.48624,-9.48671 -10.94589,-8.16507 -0.3664,1.05348 -3.68223,14.20496 -7.36851,29.22552 l -6.70232,27.31008 6.46822,6.68992 c 42.29607,43.74583 40.13657,38.86393 40.11645,90.68991 -0.012,30.79746 -0.2868,35.26193 -2.46253,40 -2.91307,6.34376 -5.88652,9.18656 -12.49834,11.94914 -6.17826,2.58146 -11.21472,2.53066 -16.32736,-0.16465 z M 61.333335,195.91549 c -4.766667,-1.44713 -10.766667,-3.2127 -13.333334,-3.92352 -22.740662,-6.2978 -31.112277,-9.30073 -34.333334,-12.31556 -1.799116,-1.68392 -3,-4.38304 -3,-6.74284 0,-3.14362 6.663659,-26.06705 14.612199,-50.2669 0.602167,-1.83334 2.737893,-8.73334 4.746061,-15.33334 5.337451,-17.541947 7.117034,-21.996369 11.211533,-28.063265 4.408497,-6.532154 6.168614,-16.034741 3.182296,-17.1807 -1.083603,-0.415817 -2.897487,-0.756032 -4.030852,-0.756032 -1.133364,0 -5.911694,-1.895856 -10.618509,-4.213013 C 19.966103,52.294175 9.9654185,42.223155 5.4614853,32.641449 2.1743274,25.648323 -0.37701905,13.706957 0.2519683,8.2587384 0.63407118,4.9490053 1.0858694,4.6971216 6.0000001,5.0541312 15.551723,5.7480599 25.861326,8.2208481 32.815715,11.485959 c 13.92761,6.539062 27.019442,25.148772 28.266916,40.180708 0.319505,3.85 0.909543,7 1.311197,7 0.401654,0 4.616131,-1.554586 9.365506,-3.454635 7.264803,-2.906379 10.773285,-3.46014 22.107434,-3.489324 19.319072,-0.04975 27.327102,3.740777 27.424162,12.980948 0.0233,2.220345 -1.36813,8.520345 -3.09212,14 -5.07577,16.133172 -12.24562,39.100284 -19.551665,62.629674 -3.757139,12.1 -7.352449,23.5 -7.989577,25.33334 -0.63713,1.83333 -2.683187,8.47898 -4.546794,14.76813 -1.863607,6.28913 -4.450916,12.37236 -5.749575,13.51828 -3.928389,3.46633 -9.801725,3.7634 -19.027864,0.96241 z M 182,73.36536 C 170.69195,70.458219 161.64702,63.272652 156.93652,53.454165 152.63928,44.497073 152.80378,29.675307 157.29806,20.876427 163.78446,8.1774016 175.55878,0.96093865 190,0.83344525 208.58635,0.66935695 222.36575,12.141748 226.67435,31.367616 229.52903,44.105749 222.64367,59.773007 210.66826,67.788589 201.34268,74.030549 191.80458,75.885975 182,73.36536 Z M 68.000002,46.754552 c 0,-3.031765 -6.370618,-18.518 -8.820481,-21.441568 -1.408585,-1.680949 -1.066085,-2.738376 2.038807,-6.294559 5.571058,-6.380801 16.448867,-13.202553 25.103377,-15.7429678 5.8383,-1.7137543 10.430849,-2.0633025 19.164675,-1.4586624 6.31751,0.4373592 12.46324,1.1700551 13.65718,1.6282131 2.72027,1.0438649 1.95589,4.9303413 -3.12486,15.8883251 C 109.6385,33.093935 98.290949,42.965857 83.962545,47.220936 73.87209,50.21748 68.000002,50.045912 68.000002,46.754552 Z"
     id="path3843"
     inkscape:connector-curvature="0" />
</svg>
